<?xml version="1.0" encoding="utf-8" standalone="no"?>
<!DOCTYPE svg PUBLIC "-//W3C//DTD SVG 1.1//EN"
  "http://www.w3.org/Graphics/SVG/1.1/DTD/svg11.dtd">
<svg xmlns:xlink="http://www.w3.org/1999/xlink" width="432pt" height="288pt" viewBox="0 0 432 288" xmlns="http://www.w3.org/2000/svg" version="1.1">
 <metadata>
  <rdf:RDF xmlns:dc="http://purl.org/dc/elements/1.1/" xmlns:cc="http://creativecommons.org/ns#" xmlns:rdf="http://www.w3.org/1999/02/22-rdf-syntax-ns#">
   <cc:Work>
    <dc:type rdf:resource="http://purl.org/dc/dcmitype/StillImage"/>
    <dc:date>2022-06-14T14:23:00.516123</dc:date>
    <dc:format>image/svg+xml</dc:format>
    <dc:creator>
     <cc:Agent>
      <dc:title>Matplotlib v3.5.1, https://matplotlib.org/</dc:title>
     </cc:Agent>
    </dc:creator>
   </cc:Work>
  </rdf:RDF>
 </metadata>
 <defs>
  <style type="text/css">*{stroke-linejoin: round; stroke-linecap: butt}</style>
 </defs>
 <g id="figure_1">
  <g id="patch_1">
   <path d="M 0 288 
L 432 288 
L 432 0 
L 0 0 
L 0 288 
z
" style="fill: none"/>
  </g>
  <g id="axes_1">
   <g id="patch_2">
    <path d="M 54 252 
L 388.8 252 
L 388.8 34.56 
L 54 34.56 
z
" style="fill: #ffffff"/>
   </g>
   <g id="matplotlib.axis_1">
    <g id="xtick_1">
     <g id="line2d_1">
      <defs>
       <path id="m0d001b8a4b" d="M 0 0 
L 0 3.5 
" style="stroke: #000000; stroke-width: 0.8"/>
      </defs>
      <g>
       <use xlink:href="#m0d001b8a4b" x="69.218182" y="252" style="stroke: #000000; stroke-width: 0.8"/>
      </g>
     </g>
     <g id="text_1">
      <!-- 0.0 -->
      <g transform="translate(61.718182 265.835938)scale(0.1 -0.1)">
       <defs>
        <path id="SimHei-30" d="M 2975 2250 
Q 2975 1350 2650 700 
Q 2325 50 1600 50 
Q 875 50 537 700 
Q 200 1350 200 2250 
Q 200 3150 537 3787 
Q 875 4425 1600 4425 
Q 2325 4425 2650 3787 
Q 2975 3150 2975 2250 
z
M 2375 2250 
Q 2375 3050 2187 3500 
Q 2000 3950 1600 3950 
Q 1200 3950 1000 3500 
Q 800 3050 800 2250 
Q 800 1450 1000 987 
Q 1200 525 1600 525 
Q 2000 525 2187 987 
Q 2375 1450 2375 2250 
z
" transform="scale(0.015625)"/>
        <path id="SimHei-2e" d="M 1100 100 
L 525 100 
L 525 650 
L 1100 650 
L 1100 100 
z
" transform="scale(0.015625)"/>
       </defs>
       <use xlink:href="#SimHei-30"/>
       <use xlink:href="#SimHei-2e" x="50"/>
       <use xlink:href="#SimHei-30" x="100"/>
      </g>
     </g>
    </g>
    <g id="xtick_2">
     <g id="line2d_2">
      <g>
       <use xlink:href="#m0d001b8a4b" x="130.090909" y="252" style="stroke: #000000; stroke-width: 0.8"/>
      </g>
     </g>
     <g id="text_2">
      <!-- 0.2 -->
      <g transform="translate(122.590909 265.835938)scale(0.1 -0.1)">
       <defs>
        <path id="SimHei-32" d="M 2850 100 
L 300 100 
L 300 500 
Q 450 900 712 1237 
Q 975 1575 1475 2000 
Q 1850 2325 2012 2600 
Q 2175 2875 2175 3200 
Q 2175 3525 2037 3737 
Q 1900 3950 1600 3950 
Q 1350 3950 1162 3725 
Q 975 3500 975 2925 
L 400 2925 
Q 425 3650 737 4037 
Q 1050 4425 1625 4425 
Q 2175 4425 2475 4087 
Q 2775 3750 2775 3175 
Q 2775 2700 2500 2350 
Q 2225 2000 1825 1650 
Q 1375 1250 1200 1050 
Q 1025 850 875 575 
L 2850 575 
L 2850 100 
z
" transform="scale(0.015625)"/>
       </defs>
       <use xlink:href="#SimHei-30"/>
       <use xlink:href="#SimHei-2e" x="50"/>
       <use xlink:href="#SimHei-32" x="100"/>
      </g>
     </g>
    </g>
    <g id="xtick_3">
     <g id="line2d_3">
      <g>
       <use xlink:href="#m0d001b8a4b" x="190.963636" y="252" style="stroke: #000000; stroke-width: 0.8"/>
      </g>
     </g>
     <g id="text_3">
      <!-- 0.4 -->
      <g transform="translate(183.463636 265.835938)scale(0.1 -0.1)">
       <defs>
        <path id="SimHei-34" d="M 2975 1200 
L 2450 1200 
L 2450 100 
L 1875 100 
L 1875 1200 
L 200 1200 
L 200 1675 
L 1875 4425 
L 2450 4425 
L 2450 1675 
L 2975 1675 
L 2975 1200 
z
M 1875 1675 
L 1875 3525 
L 750 1675 
L 1875 1675 
z
" transform="scale(0.015625)"/>
       </defs>
       <use xlink:href="#SimHei-30"/>
       <use xlink:href="#SimHei-2e" x="50"/>
       <use xlink:href="#SimHei-34" x="100"/>
      </g>
     </g>
    </g>
    <g id="xtick_4">
     <g id="line2d_4">
      <g>
       <use xlink:href="#m0d001b8a4b" x="251.836364" y="252" style="stroke: #000000; stroke-width: 0.8"/>
      </g>
     </g>
     <g id="text_4">
      <!-- 0.6 -->
      <g transform="translate(244.336364 265.835938)scale(0.1 -0.1)">
       <defs>
        <path id="SimHei-36" d="M 2850 1550 
Q 2850 850 2550 450 
Q 2250 50 1650 50 
Q 1050 50 700 550 
Q 350 1050 350 2175 
Q 350 3200 712 3812 
Q 1075 4425 1750 4425 
Q 2225 4425 2512 4075 
Q 2800 3725 2800 3300 
L 2225 3300 
Q 2225 3550 2087 3750 
Q 1950 3950 1725 3950 
Q 1350 3950 1150 3562 
Q 950 3175 925 2375 
Q 1100 2700 1300 2825 
Q 1500 2950 1775 2950 
Q 2250 2950 2550 2575 
Q 2850 2200 2850 1550 
z
M 2250 1550 
Q 2250 2000 2100 2250 
Q 1950 2500 1675 2500 
Q 1350 2500 1162 2250 
Q 975 2000 975 1650 
Q 975 1100 1162 800 
Q 1350 500 1675 500 
Q 1900 500 2075 725 
Q 2250 950 2250 1550 
z
" transform="scale(0.015625)"/>
       </defs>
       <use xlink:href="#SimHei-30"/>
       <use xlink:href="#SimHei-2e" x="50"/>
       <use xlink:href="#SimHei-36" x="100"/>
      </g>
     </g>
    </g>
    <g id="xtick_5">
     <g id="line2d_5">
      <g>
       <use xlink:href="#m0d001b8a4b" x="312.709091" y="252" style="stroke: #000000; stroke-width: 0.8"/>
      </g>
     </g>
     <g id="text_5">
      <!-- 0.8 -->
      <g transform="translate(305.209091 265.835938)scale(0.1 -0.1)">
       <defs>
        <path id="SimHei-38" d="M 2875 1325 
Q 2875 700 2525 375 
Q 2175 50 1575 50 
Q 975 50 625 375 
Q 275 700 275 1325 
Q 275 1650 475 1912 
Q 675 2175 1025 2300 
Q 725 2425 562 2650 
Q 400 2875 400 3225 
Q 400 3775 750 4100 
Q 1100 4425 1575 4425 
Q 2050 4425 2400 4100 
Q 2750 3775 2750 3225 
Q 2750 2875 2587 2650 
Q 2425 2425 2125 2300 
Q 2475 2175 2675 1912 
Q 2875 1650 2875 1325 
z
M 2200 3225 
Q 2200 3625 2025 3800 
Q 1850 3975 1575 3975 
Q 1300 3975 1125 3800 
Q 950 3625 950 3225 
Q 950 2825 1137 2662 
Q 1325 2500 1575 2500 
Q 1825 2500 2012 2662 
Q 2200 2825 2200 3225 
z
M 2300 1325 
Q 2300 1675 2112 1875 
Q 1925 2075 1575 2075 
Q 1225 2075 1037 1875 
Q 850 1675 850 1325 
Q 850 925 1050 712 
Q 1250 500 1575 500 
Q 1900 500 2100 712 
Q 2300 925 2300 1325 
z
" transform="scale(0.015625)"/>
       </defs>
       <use xlink:href="#SimHei-30"/>
       <use xlink:href="#SimHei-2e" x="50"/>
       <use xlink:href="#SimHei-38" x="100"/>
      </g>
     </g>
    </g>
    <g id="xtick_6">
     <g id="line2d_6">
      <g>
       <use xlink:href="#m0d001b8a4b" x="373.581818" y="252" style="stroke: #000000; stroke-width: 0.8"/>
      </g>
     </g>
     <g id="text_6">
      <!-- 1.0 -->
      <g transform="translate(366.081818 265.835938)scale(0.1 -0.1)">
       <defs>
        <path id="SimHei-31" d="M 1950 100 
L 1375 100 
L 1375 3425 
L 625 3425 
L 625 3725 
Q 1075 3725 1325 3900 
Q 1575 4075 1650 4425 
L 1950 4425 
L 1950 100 
z
" transform="scale(0.015625)"/>
       </defs>
       <use xlink:href="#SimHei-31"/>
       <use xlink:href="#SimHei-2e" x="50"/>
       <use xlink:href="#SimHei-30" x="100"/>
      </g>
     </g>
    </g>
    <g id="text_7">
     <!-- Conversion Probability -->
     <g transform="translate(166.4 278.039062)scale(0.1 -0.1)">
      <defs>
       <path id="SimHei-43" d="M 3000 1800 
Q 2975 850 2600 450 
Q 2225 50 1700 50 
Q 1100 50 675 537 
Q 250 1025 250 2100 
Q 250 3275 662 3850 
Q 1075 4425 1725 4425 
Q 2275 4425 2637 4012 
Q 3000 3600 2975 2850 
L 2425 2850 
Q 2425 3400 2250 3675 
Q 2075 3950 1725 3950 
Q 1325 3950 1087 3537 
Q 850 3125 850 2150 
Q 850 1250 1087 887 
Q 1325 525 1700 525 
Q 1975 525 2200 787 
Q 2425 1050 2425 1800 
L 3000 1800 
z
" transform="scale(0.015625)"/>
       <path id="SimHei-6f" d="M 2950 1500 
Q 2950 850 2550 450 
Q 2150 50 1600 50 
Q 1050 50 650 450 
Q 250 850 250 1500 
Q 250 2150 650 2550 
Q 1050 2950 1600 2950 
Q 2150 2950 2550 2550 
Q 2950 2150 2950 1500 
z
M 2400 1500 
Q 2400 2000 2150 2250 
Q 1900 2500 1600 2500 
Q 1300 2500 1050 2250 
Q 800 2000 800 1500 
Q 800 1000 1050 750 
Q 1300 500 1600 500 
Q 1900 500 2150 750 
Q 2400 1000 2400 1500 
z
" transform="scale(0.015625)"/>
       <path id="SimHei-6e" d="M 2825 100 
L 2325 100 
L 2325 1900 
Q 2325 2200 2175 2375 
Q 2025 2550 1775 2550 
Q 1450 2550 1162 2212 
Q 875 1875 875 1375 
L 875 100 
L 375 100 
L 375 2900 
L 875 2900 
L 875 2375 
Q 1075 2650 1312 2800 
Q 1550 2950 1925 2950 
Q 2375 2950 2600 2700 
Q 2825 2450 2825 2075 
L 2825 100 
z
" transform="scale(0.015625)"/>
       <path id="SimHei-76" d="M 2900 2900 
L 1850 50 
L 1300 50 
L 250 2900 
L 775 2900 
L 1550 725 
L 1600 725 
L 2375 2900 
L 2900 2900 
z
" transform="scale(0.015625)"/>
       <path id="SimHei-65" d="M 2875 1050 
Q 2825 600 2475 325 
Q 2125 50 1650 50 
Q 1050 50 662 437 
Q 275 825 275 1500 
Q 275 2175 662 2562 
Q 1050 2950 1650 2950 
Q 2175 2950 2512 2612 
Q 2850 2275 2850 1500 
L 825 1500 
Q 825 950 1062 725 
Q 1300 500 1650 500 
Q 1925 500 2100 637 
Q 2275 775 2325 1050 
L 2875 1050 
z
M 2275 1900 
Q 2225 2250 2050 2387 
Q 1875 2525 1600 2525 
Q 1350 2525 1150 2387 
Q 950 2250 850 1900 
L 2275 1900 
z
" transform="scale(0.015625)"/>
       <path id="SimHei-72" d="M 2525 2400 
Q 2050 2475 1725 2262 
Q 1400 2050 1175 1525 
L 1175 100 
L 675 100 
L 675 2900 
L 1175 2900 
L 1175 2175 
Q 1400 2575 1737 2762 
Q 2075 2950 2525 2950 
L 2525 2400 
z
" transform="scale(0.015625)"/>
       <path id="SimHei-73" d="M 2775 875 
Q 2775 475 2462 262 
Q 2150 50 1675 50 
Q 1075 50 750 287 
Q 425 525 425 975 
L 925 975 
Q 925 675 1137 575 
Q 1350 475 1650 475 
Q 1950 475 2100 587 
Q 2250 700 2250 875 
Q 2250 1000 2125 1125 
Q 2000 1250 1500 1325 
Q 925 1400 712 1612 
Q 500 1825 500 2175 
Q 500 2475 787 2712 
Q 1075 2950 1625 2950 
Q 2125 2950 2412 2725 
Q 2700 2500 2700 2125 
L 2200 2125 
Q 2200 2350 2037 2437 
Q 1875 2525 1625 2525 
Q 1300 2525 1162 2412 
Q 1025 2300 1025 2150 
Q 1025 1975 1150 1875 
Q 1275 1775 1675 1725 
Q 2325 1625 2550 1412 
Q 2775 1200 2775 875 
z
" transform="scale(0.015625)"/>
       <path id="SimHei-69" d="M 1825 3700 
L 1325 3700 
L 1325 4350 
L 1825 4350 
L 1825 3700 
z
M 1825 100 
L 1325 100 
L 1325 2900 
L 1825 2900 
L 1825 100 
z
" transform="scale(0.015625)"/>
       <path id="SimHei-20" transform="scale(0.015625)"/>
       <path id="SimHei-50" d="M 2975 3075 
Q 2975 2475 2625 2125 
Q 2275 1775 1650 1775 
L 925 1775 
L 925 100 
L 350 100 
L 350 4375 
L 1650 4375 
Q 2275 4375 2625 4025 
Q 2975 3675 2975 3075 
z
M 2400 3075 
Q 2400 3550 2175 3725 
Q 1950 3900 1500 3900 
L 925 3900 
L 925 2250 
L 1500 2250 
Q 1950 2250 2175 2425 
Q 2400 2600 2400 3075 
z
" transform="scale(0.015625)"/>
       <path id="SimHei-62" d="M 2850 1500 
Q 2850 775 2500 412 
Q 2150 50 1650 50 
Q 1375 50 1175 150 
Q 975 250 825 475 
L 825 100 
L 325 100 
L 325 4375 
L 825 4375 
L 825 2525 
Q 975 2750 1175 2862 
Q 1375 2975 1650 2975 
Q 2150 2975 2500 2600 
Q 2850 2225 2850 1500 
z
M 2300 1500 
Q 2300 1975 2112 2250 
Q 1925 2525 1550 2525 
Q 1250 2525 1037 2250 
Q 825 1975 825 1500 
Q 825 1025 1037 762 
Q 1250 500 1550 500 
Q 1925 500 2112 762 
Q 2300 1025 2300 1500 
z
" transform="scale(0.015625)"/>
       <path id="SimHei-61" d="M 2900 100 
L 2300 100 
Q 2250 150 2225 237 
Q 2200 325 2200 450 
Q 2025 250 1775 150 
Q 1525 50 1250 50 
Q 850 50 575 250 
Q 300 450 300 825 
Q 300 1200 550 1425 
Q 800 1650 1325 1725 
Q 1675 1775 1937 1850 
Q 2200 1925 2200 2050 
Q 2200 2200 2087 2350 
Q 1975 2500 1600 2500 
Q 1300 2500 1162 2387 
Q 1025 2275 975 2075 
L 425 2075 
Q 475 2475 787 2712 
Q 1100 2950 1600 2950 
Q 2150 2950 2425 2700 
Q 2700 2450 2700 2000 
L 2700 625 
Q 2700 475 2750 350 
Q 2800 225 2900 100 
z
M 2200 1025 
L 2200 1525 
Q 2050 1475 1912 1437 
Q 1775 1400 1450 1350 
Q 1075 1300 962 1175 
Q 850 1050 850 875 
Q 850 725 962 612 
Q 1075 500 1300 500 
Q 1525 500 1787 625 
Q 2050 750 2200 1025 
z
" transform="scale(0.015625)"/>
       <path id="SimHei-6c" d="M 1850 100 
L 1350 100 
L 1350 4375 
L 1850 4375 
L 1850 100 
z
" transform="scale(0.015625)"/>
       <path id="SimHei-74" d="M 2775 175 
Q 2650 125 2487 87 
Q 2325 50 2050 50 
Q 1600 50 1325 300 
Q 1050 550 1050 1000 
L 1050 2500 
L 200 2500 
L 200 2900 
L 1050 2900 
L 1050 3875 
L 1550 3875 
L 1550 2900 
L 2575 2900 
L 2575 2500 
L 1550 2500 
L 1550 975 
Q 1550 775 1650 637 
Q 1750 500 2025 500 
Q 2300 500 2475 550 
Q 2650 600 2775 675 
L 2775 175 
z
" transform="scale(0.015625)"/>
       <path id="SimHei-79" d="M 2925 2900 
L 1775 -125 
Q 1675 -475 1475 -650 
Q 1275 -825 975 -825 
Q 850 -825 737 -812 
Q 625 -800 525 -750 
L 525 -250 
Q 625 -300 725 -325 
Q 825 -350 900 -350 
Q 1100 -350 1175 -287 
Q 1250 -225 1325 0 
L 225 2900 
L 775 2900 
L 1575 700 
L 1600 700 
L 2375 2900 
L 2925 2900 
z
" transform="scale(0.015625)"/>
      </defs>
      <use xlink:href="#SimHei-43"/>
      <use xlink:href="#SimHei-6f" x="50"/>
      <use xlink:href="#SimHei-6e" x="100"/>
      <use xlink:href="#SimHei-76" x="150"/>
      <use xlink:href="#SimHei-65" x="200"/>
      <use xlink:href="#SimHei-72" x="250"/>
      <use xlink:href="#SimHei-73" x="300"/>
      <use xlink:href="#SimHei-69" x="350"/>
      <use xlink:href="#SimHei-6f" x="400"/>
      <use xlink:href="#SimHei-6e" x="450"/>
      <use xlink:href="#SimHei-20" x="500"/>
      <use xlink:href="#SimHei-50" x="550"/>
      <use xlink:href="#SimHei-72" x="600"/>
      <use xlink:href="#SimHei-6f" x="650"/>
      <use xlink:href="#SimHei-62" x="700"/>
      <use xlink:href="#SimHei-61" x="750"/>
      <use xlink:href="#SimHei-62" x="800"/>
      <use xlink:href="#SimHei-69" x="850"/>
      <use xlink:href="#SimHei-6c" x="900"/>
      <use xlink:href="#SimHei-69" x="950"/>
      <use xlink:href="#SimHei-74" x="1000"/>
      <use xlink:href="#SimHei-79" x="1050"/>
     </g>
    </g>
   </g>
   <g id="matplotlib.axis_2">
    <g id="ytick_1">
     <g id="line2d_7">
      <defs>
       <path id="m4835043b11" d="M 0 0 
L -3.5 0 
" style="stroke: #000000; stroke-width: 0.8"/>
      </defs>
      <g>
       <use xlink:href="#m4835043b11" x="54" y="242.116364" style="stroke: #000000; stroke-width: 0.8"/>
      </g>
     </g>
     <g id="text_8">
      <!-- 0 -->
      <g transform="translate(42 245.534332)scale(0.1 -0.1)">
       <use xlink:href="#SimHei-30"/>
      </g>
     </g>
    </g>
    <g id="ytick_2">
     <g id="line2d_8">
      <g>
       <use xlink:href="#m4835043b11" x="54" y="214.164775" style="stroke: #000000; stroke-width: 0.8"/>
      </g>
     </g>
     <g id="text_9">
      <!-- 2 -->
      <g transform="translate(42 217.582744)scale(0.1 -0.1)">
       <use xlink:href="#SimHei-32"/>
      </g>
     </g>
    </g>
    <g id="ytick_3">
     <g id="line2d_9">
      <g>
       <use xlink:href="#m4835043b11" x="54" y="186.213187" style="stroke: #000000; stroke-width: 0.8"/>
      </g>
     </g>
     <g id="text_10">
      <!-- 4 -->
      <g transform="translate(42 189.631156)scale(0.1 -0.1)">
       <use xlink:href="#SimHei-34"/>
      </g>
     </g>
    </g>
    <g id="ytick_4">
     <g id="line2d_10">
      <g>
       <use xlink:href="#m4835043b11" x="54" y="158.261599" style="stroke: #000000; stroke-width: 0.8"/>
      </g>
     </g>
     <g id="text_11">
      <!-- 6 -->
      <g transform="translate(42 161.679568)scale(0.1 -0.1)">
       <use xlink:href="#SimHei-36"/>
      </g>
     </g>
    </g>
    <g id="ytick_5">
     <g id="line2d_11">
      <g>
       <use xlink:href="#m4835043b11" x="54" y="130.310011" style="stroke: #000000; stroke-width: 0.8"/>
      </g>
     </g>
     <g id="text_12">
      <!-- 8 -->
      <g transform="translate(42 133.72798)scale(0.1 -0.1)">
       <use xlink:href="#SimHei-38"/>
      </g>
     </g>
    </g>
    <g id="ytick_6">
     <g id="line2d_12">
      <g>
       <use xlink:href="#m4835043b11" x="54" y="102.358423" style="stroke: #000000; stroke-width: 0.8"/>
      </g>
     </g>
     <g id="text_13">
      <!-- 10 -->
      <g transform="translate(37 105.776391)scale(0.1 -0.1)">
       <use xlink:href="#SimHei-31"/>
       <use xlink:href="#SimHei-30" x="50"/>
      </g>
     </g>
    </g>
    <g id="ytick_7">
     <g id="line2d_13">
      <g>
       <use xlink:href="#m4835043b11" x="54" y="74.406834" style="stroke: #000000; stroke-width: 0.8"/>
      </g>
     </g>
     <g id="text_14">
      <!-- 12 -->
      <g transform="translate(37 77.824803)scale(0.1 -0.1)">
       <use xlink:href="#SimHei-31"/>
       <use xlink:href="#SimHei-32" x="50"/>
      </g>
     </g>
    </g>
    <g id="ytick_8">
     <g id="line2d_14">
      <g>
       <use xlink:href="#m4835043b11" x="54" y="46.455246" style="stroke: #000000; stroke-width: 0.8"/>
      </g>
     </g>
     <g id="text_15">
      <!-- 14 -->
      <g transform="translate(37 49.873215)scale(0.1 -0.1)">
       <use xlink:href="#SimHei-31"/>
       <use xlink:href="#SimHei-34" x="50"/>
      </g>
     </g>
    </g>
    <g id="text_16">
     <!-- Density -->
     <g transform="translate(31.710938 160.78)rotate(-90)scale(0.1 -0.1)">
      <defs>
       <path id="SimHei-44" d="M 2950 2225 
Q 2950 1075 2462 587 
Q 1975 100 1150 100 
L 300 100 
L 300 4375 
L 1150 4375 
Q 2075 4375 2512 3875 
Q 2950 3375 2950 2225 
z
M 2350 2225 
Q 2350 3150 2050 3525 
Q 1750 3900 1150 3900 
L 875 3900 
L 875 575 
L 1150 575 
Q 1750 575 2050 937 
Q 2350 1300 2350 2225 
z
" transform="scale(0.015625)"/>
      </defs>
      <use xlink:href="#SimHei-44"/>
      <use xlink:href="#SimHei-65" x="50"/>
      <use xlink:href="#SimHei-6e" x="100"/>
      <use xlink:href="#SimHei-73" x="150"/>
      <use xlink:href="#SimHei-69" x="200"/>
      <use xlink:href="#SimHei-74" x="250"/>
      <use xlink:href="#SimHei-79" x="300"/>
     </g>
    </g>
   </g>
   <g id="line2d_15">
    <path d="M 69.218182 242.116364 
L 275.173956 242.014777 
L 278.525307 241.780221 
L 280.657985 241.429657 
L 282.485995 240.886672 
L 284.009337 240.16016 
L 285.22801 239.320089 
L 286.446683 238.169716 
L 287.665356 236.617265 
L 288.579361 235.123907 
L 289.493366 233.290584 
L 290.407371 231.059615 
L 291.321376 228.369066 
L 292.540049 223.954365 
L 293.758722 218.451067 
L 294.977396 211.710051 
L 296.196069 203.602726 
L 297.414742 194.037586 
L 298.938084 179.98356 
L 300.461425 163.701923 
L 302.289435 141.71811 
L 307.773464 73.346767 
L 308.992138 61.542932 
L 309.906143 54.423272 
L 310.820147 49.070268 
L 311.429484 46.588111 
L 312.038821 45.033693 
L 312.343489 44.616341 
L 312.648157 44.443636 
L 312.952826 44.51806 
L 313.257494 44.841196 
L 313.562162 45.413714 
L 314.171499 47.304908 
L 314.780835 50.178222 
L 315.390172 54.005165 
L 316.304177 61.435199 
L 317.218182 70.706363 
L 318.436855 85.46513 
L 320.264865 111.156548 
L 324.530221 173.038283 
L 326.053563 191.457189 
L 327.272236 203.891019 
L 328.490909 214.161301 
L 329.709582 222.331171 
L 330.623587 227.188667 
L 331.537592 231.077359 
L 332.451597 234.121487 
L 333.365602 236.450383 
L 334.279607 238.190537 
L 335.193612 239.459538 
L 336.107617 240.361984 
L 337.021622 240.987264 
L 338.240295 241.514782 
L 339.763636 241.86153 
L 341.896314 242.050251 
L 346.161671 242.113925 
L 373.581818 242.116364 
L 373.581818 242.116364 
" clip-path="url(#p4c478c73f9)" style="fill: none; stroke: #ff2400; stroke-width: 1.5; stroke-linecap: square"/>
   </g>
   <g id="line2d_16">
    <path d="M 69.218182 242.116364 
L 237.090418 242.005399 
L 244.402457 241.764227 
L 249.27715 241.397842 
L 253.237838 240.875319 
L 256.284521 240.264192 
L 259.026536 239.499752 
L 261.463882 238.600827 
L 263.901229 237.445487 
L 266.033907 236.181827 
L 268.166585 234.641087 
L 269.994595 233.068526 
L 271.822604 231.235346 
L 273.650614 229.115318 
L 275.478624 226.683572 
L 277.306634 223.917763 
L 279.439312 220.244416 
L 281.57199 216.07165 
L 283.704668 211.393227 
L 286.142015 205.442409 
L 288.579361 198.896746 
L 291.626044 190.02374 
L 296.500737 174.958428 
L 300.461425 163.026198 
L 302.898771 156.40598 
L 304.726781 152.04159 
L 306.250123 148.909982 
L 307.773464 146.320441 
L 308.992138 144.687658 
L 310.210811 143.481211 
L 311.124816 142.873854 
L 312.038821 142.533278 
L 312.952826 142.468206 
L 313.86683 142.685421 
L 314.780835 143.189602 
L 315.69484 143.983176 
L 316.608845 145.066202 
L 317.827518 146.95596 
L 319.046192 149.342972 
L 320.264865 152.206366 
L 321.788206 156.410711 
L 323.616216 162.273422 
L 325.748894 170.035627 
L 328.490909 181.002662 
L 334.888943 207.038298 
L 337.021622 214.719144 
L 338.849631 220.582678 
L 340.677641 225.684579 
L 342.200983 229.321618 
L 343.724324 232.398038 
L 345.247666 234.93352 
L 346.771007 236.965254 
L 347.989681 238.261796 
L 349.208354 239.298893 
L 350.731695 240.280542 
L 352.255037 240.973622 
L 353.778378 241.441295 
L 355.606388 241.785253 
L 358.043735 242.008127 
L 362.004423 242.106521 
L 373.581818 242.116364 
L 373.581818 242.116364 
" clip-path="url(#p4c478c73f9)" style="fill: none; stroke: #1974d2; stroke-width: 1.5; stroke-linecap: square"/>
   </g>
   <g id="line2d_17">
    <path d="M 69.218182 242.116364 
L 148.127273 242.006781 
L 154.220639 241.761654 
L 158.485995 241.378011 
L 161.837346 240.863466 
L 164.579361 240.240648 
L 167.016708 239.487162 
L 169.454054 238.500406 
L 171.586732 237.40902 
L 173.71941 236.071246 
L 175.852088 234.45556 
L 177.984767 232.532583 
L 180.117445 230.27686 
L 182.250123 227.6688 
L 184.382801 224.69666 
L 186.515479 221.35847 
L 188.952826 217.108008 
L 191.69484 211.814776 
L 194.741523 205.401772 
L 199.00688 195.818463 
L 205.100246 182.143398 
L 207.84226 176.545156 
L 209.974939 172.635964 
L 211.802948 169.678584 
L 213.630958 167.144743 
L 215.1543 165.393077 
L 216.677641 163.99487 
L 217.896314 163.144238 
L 219.114988 162.540323 
L 220.333661 162.188664 
L 221.552334 162.092499 
L 222.771007 162.252713 
L 223.989681 162.66783 
L 225.208354 163.334032 
L 226.427027 164.245215 
L 227.950369 165.715851 
L 229.47371 167.535416 
L 230.997052 169.678584 
L 232.825061 172.635964 
L 234.95774 176.545156 
L 237.395086 181.495685 
L 240.746437 188.86535 
L 249.886486 209.308802 
L 252.93317 215.400561 
L 255.370516 219.817683 
L 257.807862 223.780055 
L 259.940541 226.857054 
L 262.073219 229.56833 
L 264.205897 231.923028 
L 266.338575 233.938697 
L 268.471253 235.639319 
L 270.603931 237.053342 
L 272.736609 238.211848 
L 275.173956 239.264123 
L 277.611302 240.071699 
L 280.353317 240.742884 
L 283.4 241.260052 
L 287.05602 241.651778 
L 291.930713 241.926798 
L 298.938084 242.072723 
L 314.780835 242.11577 
L 373.581818 242.116364 
L 373.581818 242.116364 
" clip-path="url(#p4c478c73f9)" style="fill: none; stroke: #228b22; stroke-width: 1.5; stroke-linecap: square"/>
   </g>
   <g id="line2d_18">
    <path d="M 69.218182 228.14057 
L 373.581818 228.14057 
L 373.581818 228.14057 
" clip-path="url(#p4c478c73f9)" style="fill: none; stroke: #999999; stroke-width: 1.5; stroke-linecap: square"/>
   </g>
   <g id="patch_3">
    <path d="M 54 252 
L 54 34.56 
" style="fill: none; stroke: #000000; stroke-width: 0.8; stroke-linejoin: miter; stroke-linecap: square"/>
   </g>
   <g id="patch_4">
    <path d="M 388.8 252 
L 388.8 34.56 
" style="fill: none; stroke: #000000; stroke-width: 0.8; stroke-linejoin: miter; stroke-linecap: square"/>
   </g>
   <g id="patch_5">
    <path d="M 54 252 
L 388.8 252 
" style="fill: none; stroke: #000000; stroke-width: 0.8; stroke-linejoin: miter; stroke-linecap: square"/>
   </g>
   <g id="patch_6">
    <path d="M 54 34.56 
L 388.8 34.56 
" style="fill: none; stroke: #000000; stroke-width: 0.8; stroke-linejoin: miter; stroke-linecap: square"/>
   </g>
   <g id="legend_1">
    <g id="patch_7">
     <path d="M 61 97.2475 
L 158 97.2475 
Q 160 97.2475 160 95.2475 
L 160 41.56 
Q 160 39.56 158 39.56 
L 61 39.56 
Q 59 39.56 59 41.56 
L 59 95.2475 
Q 59 97.2475 61 97.2475 
z
" style="fill: #ffffff; opacity: 0.8; stroke: #cccccc; stroke-linejoin: miter"/>
    </g>
    <g id="line2d_19">
     <path d="M 63 47.442813 
L 73 47.442813 
L 83 47.442813 
" style="fill: none; stroke: #ff2400; stroke-width: 1.5; stroke-linecap: square"/>
    </g>
    <g id="text_17">
     <!-- Beta(161, 41) -->
     <g transform="translate(91 50.942813)scale(0.1 -0.1)">
      <defs>
       <path id="SimHei-42" d="M 2975 1375 
Q 2975 650 2575 375 
Q 2175 100 1550 100 
L 300 100 
L 300 4375 
L 1600 4375 
Q 2225 4375 2537 4050 
Q 2850 3725 2850 3275 
Q 2850 2825 2637 2612 
Q 2425 2400 2200 2325 
Q 2500 2250 2737 2012 
Q 2975 1775 2975 1375 
z
M 2275 3275 
Q 2275 3600 2087 3750 
Q 1900 3900 1625 3900 
L 875 3900 
L 875 2575 
L 1600 2575 
Q 1875 2575 2075 2737 
Q 2275 2900 2275 3275 
z
M 2375 1375 
Q 2375 1775 2112 1937 
Q 1850 2100 1525 2100 
L 875 2100 
L 875 575 
L 1450 575 
Q 1900 575 2137 750 
Q 2375 925 2375 1375 
z
" transform="scale(0.015625)"/>
       <path id="SimHei-28" d="M 3000 -225 
L 2725 -500 
Q 2100 100 1787 750 
Q 1475 1400 1475 2225 
Q 1475 3050 1787 3700 
Q 2100 4350 2725 4975 
L 3000 4700 
Q 2425 4150 2137 3562 
Q 1850 2975 1850 2225 
Q 1850 1475 2137 887 
Q 2425 300 3000 -225 
z
" transform="scale(0.015625)"/>
       <path id="SimHei-2c" d="M 1125 100 
L 800 -575 
L 550 -575 
L 800 100 
L 550 100 
L 550 650 
L 1125 650 
L 1125 100 
z
" transform="scale(0.015625)"/>
       <path id="SimHei-29" d="M 1700 2225 
Q 1700 1400 1387 750 
Q 1075 100 450 -500 
L 175 -225 
Q 750 300 1037 887 
Q 1325 1475 1325 2225 
Q 1325 2975 1037 3562 
Q 750 4150 175 4700 
L 450 4975 
Q 1075 4350 1387 3700 
Q 1700 3050 1700 2225 
z
" transform="scale(0.015625)"/>
      </defs>
      <use xlink:href="#SimHei-42"/>
      <use xlink:href="#SimHei-65" x="50"/>
      <use xlink:href="#SimHei-74" x="100"/>
      <use xlink:href="#SimHei-61" x="150"/>
      <use xlink:href="#SimHei-28" x="200"/>
      <use xlink:href="#SimHei-31" x="250"/>
      <use xlink:href="#SimHei-36" x="300"/>
      <use xlink:href="#SimHei-31" x="350"/>
      <use xlink:href="#SimHei-2c" x="400"/>
      <use xlink:href="#SimHei-20" x="450"/>
      <use xlink:href="#SimHei-34" x="500"/>
      <use xlink:href="#SimHei-31" x="550"/>
      <use xlink:href="#SimHei-29" x="600"/>
     </g>
    </g>
    <g id="line2d_20">
     <path d="M 63 61.114688 
L 73 61.114688 
L 83 61.114688 
" style="fill: none; stroke: #1974d2; stroke-width: 1.5; stroke-linecap: square"/>
    </g>
    <g id="text_18">
     <!-- Beta(41, 11) -->
     <g transform="translate(91 64.614688)scale(0.1 -0.1)">
      <use xlink:href="#SimHei-42"/>
      <use xlink:href="#SimHei-65" x="50"/>
      <use xlink:href="#SimHei-74" x="100"/>
      <use xlink:href="#SimHei-61" x="150"/>
      <use xlink:href="#SimHei-28" x="200"/>
      <use xlink:href="#SimHei-34" x="250"/>
      <use xlink:href="#SimHei-31" x="300"/>
      <use xlink:href="#SimHei-2c" x="350"/>
      <use xlink:href="#SimHei-20" x="400"/>
      <use xlink:href="#SimHei-31" x="450"/>
      <use xlink:href="#SimHei-31" x="500"/>
      <use xlink:href="#SimHei-29" x="550"/>
     </g>
    </g>
    <g id="line2d_21">
     <path d="M 63 74.786563 
L 73 74.786563 
L 83 74.786563 
" style="fill: none; stroke: #228b22; stroke-width: 1.5; stroke-linecap: square"/>
    </g>
    <g id="text_19">
     <!-- Beta(26, 26) -->
     <g transform="translate(91 78.286563)scale(0.1 -0.1)">
      <use xlink:href="#SimHei-42"/>
      <use xlink:href="#SimHei-65" x="50"/>
      <use xlink:href="#SimHei-74" x="100"/>
      <use xlink:href="#SimHei-61" x="150"/>
      <use xlink:href="#SimHei-28" x="200"/>
      <use xlink:href="#SimHei-32" x="250"/>
      <use xlink:href="#SimHei-36" x="300"/>
      <use xlink:href="#SimHei-2c" x="350"/>
      <use xlink:href="#SimHei-20" x="400"/>
      <use xlink:href="#SimHei-32" x="450"/>
      <use xlink:href="#SimHei-36" x="500"/>
      <use xlink:href="#SimHei-29" x="550"/>
     </g>
    </g>
    <g id="line2d_22">
     <path d="M 63 88.458438 
L 73 88.458438 
L 83 88.458438 
" style="fill: none; stroke: #999999; stroke-width: 1.5; stroke-linecap: square"/>
    </g>
    <g id="text_20">
     <!-- Beta(1, 1) -->
     <g transform="translate(91 91.958438)scale(0.1 -0.1)">
      <use xlink:href="#SimHei-42"/>
      <use xlink:href="#SimHei-65" x="50"/>
      <use xlink:href="#SimHei-74" x="100"/>
      <use xlink:href="#SimHei-61" x="150"/>
      <use xlink:href="#SimHei-28" x="200"/>
      <use xlink:href="#SimHei-31" x="250"/>
      <use xlink:href="#SimHei-2c" x="300"/>
      <use xlink:href="#SimHei-20" x="350"/>
      <use xlink:href="#SimHei-31" x="400"/>
      <use xlink:href="#SimHei-29" x="450"/>
     </g>
    </g>
   </g>
  </g>
 </g>
 <defs>
  <clipPath id="p4c478c73f9">
   <rect x="54" y="34.56" width="334.8" height="217.44"/>
  </clipPath>
 </defs>
</svg>
